HIERARCHY
ROOT Bip001_Pelvis
{
  OFFSET 34.4345 95.6767 -26.8758
  CHANNELS 6 Xposition Yposition Zposition Zrotation Xrotation Yrotation
  JOINT Bip001_Spine
  {
    OFFSET 1.4188e-005 10.2191 -0.0116013
    CHANNELS 3 Zrotation Xrotation Yrotation
    JOINT Bip001_L_Thigh
    {
      OFFSET 11.0458 -10.2192 0.0116197
      CHANNELS 3 Zrotation Xrotation Yrotation
      JOINT Bip001_L_Calf
      {
        OFFSET -0.707118 -44.0221 0.360014
        CHANNELS 3 Zrotation Xrotation Yrotation
        JOINT Bip001_L_Foot
        {
          OFFSET -0.651902 -40.5938 -3.56146
          CHANNELS 3 Zrotation Xrotation Yrotation
          JOINT Bip001_L_Toe0
          {
            OFFSET 0.0530839 -10.2181 13.1504
            CHANNELS 3 Zrotation Xrotation Yrotation
            End Site
            {
              OFFSET -1.02532e-005 0 7.55606
            }
          }
        }
      }
    }
    JOINT Bip001_R_Thigh
    {
      OFFSET -11.0458 -10.2191 0.0115893
      CHANNELS 3 Zrotation Xrotation Yrotation
      JOINT Bip001_R_Calf
      {
        OFFSET 0.706994 -44.0221 0.35984
        CHANNELS 3 Zrotation Xrotation Yrotation
        JOINT Bip001_R_Foot
        {
          OFFSET 0.651786 -40.5938 -3.5613
          CHANNELS 3 Zrotation Xrotation Yrotation
          JOINT Bip001_R_Toe0
          {
            OFFSET -0.0531479 -10.2181 13.1504
            CHANNELS 3 Zrotation Xrotation Yrotation
            End Site
            {
              OFFSET -1.02894e-005 0 7.55606
            }
          }
        }
      }
    }
    JOINT Bip001_Spine1
    {
      OFFSET 1.87041e-005 14.5736 1.08638
      CHANNELS 3 Zrotation Xrotation Yrotation
      JOINT Bip001_Spine2
      {
        OFFSET 2.24614e-005 14.5058 -1.69078
        CHANNELS 3 Zrotation Xrotation Yrotation
        JOINT Bip001_Neck
        {
          OFFSET 2.20278e-005 15.3945 -0.489414
          CHANNELS 3 Zrotation Xrotation Yrotation
          JOINT Bip001_L_Clavicle
          {
            OFFSET 6.06036 -0.000579998 0.00836775
            CHANNELS 3 Zrotation Xrotation Yrotation
            JOINT Bip001_L_UpperArm
            {
              OFFSET 11.5509 -0.0600302 0.00193952
              CHANNELS 3 Zrotation Xrotation Yrotation
              JOINT Bip001_L_Forearm
              {
                OFFSET 25.9523 0.0806089 -2.15551
                CHANNELS 3 Zrotation Xrotation Yrotation
                JOINT Bip001_L_Hand
                {
                  OFFSET 32.2475 0.153767 1.63968
                  CHANNELS 3 Zrotation Xrotation Yrotation
                  JOINT Bip001_L_Finger0
                  {
                    OFFSET 6.04639 -2.20976 5.90322
                    CHANNELS 3 Zrotation Xrotation Yrotation
                    End Site
                    {
                      OFFSET 4.22375 -1.43895 0.606485
                    }
                  }
                  JOINT Bip001_L_Finger1
                  {
                    OFFSET 11.0826 -0.704819 -0.198153
                    CHANNELS 3 Zrotation Xrotation Yrotation
                    End Site
                    {
                      OFFSET 6.20027 -0.397518 -0.0787166
                    }
                  }
                }
              }
            }
          }
          JOINT Bip001_R_Clavicle
          {
            OFFSET -6.06037 -0.000563197 0.00835105
            CHANNELS 3 Zrotation Xrotation Yrotation
            JOINT Bip001_R_UpperArm
            {
              OFFSET -11.5509 -0.0599978 0.00190698
              CHANNELS 3 Zrotation Xrotation Yrotation
              JOINT Bip001_R_Forearm
              {
                OFFSET -25.9523 0.0806822 -2.15589
                CHANNELS 3 Zrotation Xrotation Yrotation
                JOINT Bip001_R_Hand
                {
                  OFFSET -32.2475 0.153859 1.63989
                  CHANNELS 3 Zrotation Xrotation Yrotation
                  JOINT Bip001_R_Finger0
                  {
                    OFFSET -6.04641 -2.20976 5.90317
                    CHANNELS 3 Zrotation Xrotation Yrotation
                    End Site
                    {
                      OFFSET -4.22376 -1.43895 0.60647
                    }
                  }
                  JOINT Bip001_R_Finger1
                  {
                    OFFSET -11.0826 -0.704794 -0.198182
                    CHANNELS 3 Zrotation Xrotation Yrotation
                    End Site
                    {
                      OFFSET -6.20028 -0.397504 -0.0787333
                    }
                  }
                }
              }
            }
          }
          JOINT Bip001_Head
          {
            OFFSET 1.09673e-005 11.2744 2.05948
            CHANNELS 3 Zrotation Xrotation Yrotation
            End Site
            {
              OFFSET 2.89576e-005 20.8808 -2.77728e-005
            }
          }
        }
      }
    }
  }
}
MOTION
Frames:	10
Frame Time:	0.04
33.7663 95.3593 -29.7773 -2.64702 2.82229 27.2447 -0.623272 1.38649 1.90604 7.06491 -15.8684 0.992021 -0.661886 17.0138 -18.5719 1.53789 -6.38472 0.0194035 1.19523 -3.17197 -1.57228 -0.304036 -0.876105 -4.13116 2.59248 7.74281 -2.98822 -11.9731 -2.57976 -22.422 3.28878 -10.4623 2.98905 -1.3036 2.75088 3.83256 -1.29829 2.75091 3.83123 6.30137 -11.5877 -8.69734 -30.7791 9.64724 3.41506 -50.1255 34.2132 6.25947 18.4955 -0.695368 -35.0523 8.74801 1.27948 -4.64804 -4.77083e-015 1.59028e-015 3.18055e-015 -3.97569e-015 0 -0 2.09987 16.7357 30.1067 43.6572 -45.5431 44.6736 -65.3192 1.59027 74.484 -13.8782 -5.72352 4.67304 1.59028e-015 6.36111e-015 -4.77083e-015 0 3.18056e-015 -0 -7.30114 3.85064 -5.14861 
33.5734 95.3453 -29.5355 -2.71515 2.67487 29.2539 -0.583971 1.46117 2.00727 7.14193 -16.3185 0.922532 -0.647403 17.1602 -20.2085 0.712222 -6.72202 0.0195927 1.0455 -2.57852 -1.50946 0.14872 -0.601869 -4.17928 2.66293 7.78135 -3.06219 -12.2842 -2.04666 -24.0045 3.3359 -10.5187 2.9143 -1.2179 2.90112 4.03604 -1.21841 2.90126 4.03376 6.32101 -11.8537 -10.0276 -31.3626 9.07999 4.93534 -49.5598 33.1896 6.81032 18.4561 0.310768 -35.7482 8.51149 1.54452 -4.63223 3.97569e-015 3.18055e-015 3.18055e-015 7.95139e-016 0 3.18055e-015 -1.93179 15.7556 33.104 34.8812 -35.6197 46.0611 -71.4683 9.77883 56.917 -16.7279 -6.5717 5.66164 -6.36111e-015 6.36111e-015 -2.38542e-015 -3.18055e-015 3.18056e-015 -1.59028e-015 -6.96778 5.07226 -6.46751 
33.5444 95.3825 -29.3181 -2.62564 2.60208 30.6342 -0.634918 1.42052 1.83297 6.89934 -16.1832 0.216397 -0.323414 16.8142 -20.536 -0.46718 -7.18238 0.0198102 0.62453 -1.73498 -1.17457 0.300569 -0.106501 -4.51381 2.7269 7.60901 -3.26548 -12.2837 -1.83802 -24.4183 3.34334 -10.5192 2.89011 -1.31858 2.82033 3.6783 -1.32133 2.82021 3.68087 7.69403 -9.82149 -10.9546 -31.4966 6.21995 6.25292 -50.2522 33.4274 7.56278 19.6811 2.73379 -35.3232 7.55056 1.4958 -4.13608 -5.56597e-015 0 3.18055e-015 -7.95139e-015 -1.59028e-015 -0 -1.45773 13.8928 32.716 40.4848 -37.4953 54.5868 -61.2534 4.42533 56.2761 -14.2605 -0.423253 5.77678 3.18055e-015 -9.54166e-015 3.18055e-015 1.59028e-015 -9.54167e-015 4.77083e-015 -7.1912 4.51189 -6.87425 
33.7076 95.3676 -29.1914 -2.00921 2.31221 30.0596 -0.674037 1.31125 1.53458 6.46869 -15.0047 1.43737 0.188923 16.3841 -21.1944 0.331649 -6.70357 0.0199749 1.04416 -2.33369 -1.49749 -0.231272 0.356903 -4.64583 2.78788 8.2568 -3.11747 -12.2113 -2.3775 -23.757 3.33405 -10.4961 2.88677 -1.37218 2.60395 3.0883 -1.37325 2.6042 3.08648 10.3531 -6.66722 -11.8866 -31.3893 2.65978 5.62987 -53.6347 34.39 10.0882 20.818 4.80683 -33.9266 6.14977 2.40045 -3.51987 6.36111e-015 0 3.18055e-015 7.95139e-015 0 3.18055e-015 -3.08328 9.93601 30.2862 36.9738 -33.8297 53.5716 -55.7678 2.51407 61.3873 -18.5632 1.14035 4.28055 2.20695e-031 -1.59028e-014 7.95139e-016 -3.18055e-015 -9.54167e-015 7.95139e-016 -9.02824 3.74569 -6.72369 
33.8586 95.4202 -29.2053 -1.09245 1.83964 26.8261 -0.483993 1.32458 1.29103 6.09939 -13.0337 2.5757 -0.019962 15.6603 -18.7643 1.11634 -6.26273 0.020094 1.77893 -2.82035 -2.1738 -1.36209 0.307133 -3.97544 2.60691 9.3375 -2.9488 -11.8992 -3.28231 -21.8332 3.27735 -10.4133 2.95282 -0.998116 2.63787 2.59419 -0.99812 2.63788 2.59421 9.779 -4.30611 -11.5075 -31.1678 0.822173 4.42118 -56.8827 35.7034 14.1211 21.6365 4.81396 -33.0601 5.4953 2.46138 -3.13768 -7.15625e-015 9.54166e-015 -6.36111e-015 -2.38542e-015 3.18056e-015 -4.77083e-015 -5.13789 6.0972 27.8149 36.5867 -25.6579 55.2523 -59.5195 4.04122 62.9228 -25.4109 -0.26101 3.05168 -1.59028e-015 -3.18055e-015 -0 -7.95139e-016 3.18056e-015 3.97569e-016 -9.53376 3.41363 -6.20643 
34.0081 95.5534 -29.2692 -0.291287 1.00636 22.0714 -0.358812 1.661 0.824161 6.01967 -10.6552 4.04152 -0.0278263 14.598 -14.8474 -0.498525 -7.15955 0.0201845 1.30066 -1.77178 -1.81175 -2.33866 0.120452 -3.40361 2.10312 9.84177 -2.5124 -11.2197 -4.17593 -18.4507 3.19053 -10.2949 3.06818 -0.752514 3.3165 1.66567 -0.747313 3.31669 1.66314 5.91875 -4.83901 -8.60199 -28.0997 2.68043 4.72005 -57.658 38.0561 14.2167 19.981 3.0309 -30.7854 4.99134 1.79611 -3.29549 -3.18055e-015 -3.18055e-015 4.77083e-015 -1.76556e-031 3.18056e-015 3.18055e-015 -3.99578 6.88987 28.6616 34.6279 -19.1053 57.1111 -56.1344 1.81626 57.4001 -28.8036 -1.08736 5.77669 1.59028e-015 9.54166e-015 -5.1684e-015 1.98785e-015 6.36111e-015 -4.77083e-015 -6.19454 4.28247 -5.18173 
34.0085 95.6161 -29.3793 0.34962 0.212455 17.0774 -0.247638 1.88998 0.845094 5.7629 -8.22301 5.46406 -0.0907646 13.206 -11.902 -0.380824 -7.00138 0.019928 1.12186 -1.90408 -1.5715 -3.27698 -0.332671 -3.46489 1.61195 10.5842 -2.02438 -10.3675 -5.44787 -14.7009 3.08048 -10.08 3.11655 -0.523413 3.77632 1.69729 -0.523716 3.77625 1.6999 4.55512 -4.96902 -7.51111 -27.3631 3.53578 3.6016 -58.8439 41.0836 14.437 18.055 0.0848809 -28.1355 4.42329 1.67741 -2.7823 -6.36111e-015 3.18055e-015 -1.59028e-015 -6.36111e-015 6.36111e-015 -1.59028e-015 -2.27818 7.73446 29.6482 39.777 -17.0803 58.1793 -55.1062 2.51874 62.1442 -23.9703 -0.81416 6.49065 -1.59028e-015 -3.18055e-015 1.59028e-015 -1.59028e-015 0 1.59028e-015 -4.73608 4.03414 -4.8999 
33.9155 95.6216 -29.5774 0.390283 -0.228211 12.791 -0.0996461 1.87489 1.03751 5.76951 -6.4838 5.49355 -0.576143 12.0988 -8.86827 1.12505 -6.18109 0.0192011 1.14732 -3.09929 -1.29587 -3.81872 -0.83232 -3.86443 1.38555 10.8698 -1.44473 -9.54289 -6.4416 -11.4693 2.94219 -9.77707 3.13081 -0.234278 3.74793 2.07288 -0.234084 3.74799 2.07626 6.38098 -4.00229 -8.10443 -29.5357 2.52533 2.202 -59.1512 41.7361 14.4489 17.5093 0.494705 -26.7641 2.51815 2.09119 -2.0707 3.53112e-031 6.36111e-015 -3.18055e-015 3.53113e-031 1.27222e-014 -1.59028e-015 -0.162457 7.86431 29.7812 42.6235 -14.1258 54.2316 -57.5644 4.31344 71.6229 -23.1919 -0.784326 5.59375 -4.77083e-015 -6.36111e-015 -0 -3.18055e-015 -9.54167e-015 -0 -6.44322 2.80403 -4.60374 
33.5923 95.6611 -29.8141 0.272929 -0.363278 9.48942 0.052319 1.89884 0.971469 6.17131 -5.54123 6.34113 -1.1474 11.4405 -6.4401 1.30031 -5.96429 0.018135 1.28989 -3.28138 -1.29987 -3.89684 -1.50971 -3.01855 1.21129 10.8512 -1.07964 -9.07021 -6.82284 -9.73127 2.81989 -9.50662 3.14257 0.0610918 3.7981 1.94492 0.0665621 3.79812 1.94441 5.1703 -5.64861 -7.95819 -29.0399 4.20646 2.76912 -58.4437 41.0668 13.3443 18.018 3.10188 -26.6457 1.83747 2.13511 -1.75897 3.18055e-015 -6.36111e-015 -0 4.77083e-015 -6.36111e-015 -1.59028e-015 4.9269 10.9667 28.1272 43.0185 -12.2211 45.5266 -61.8617 5.02444 83.4016 -21.3434 -3.30883 5.05916 1.59028e-015 -3.18055e-015 3.18055e-015 -3.53113e-031 3.18056e-015 6.36111e-015 -4.81153 4.92405 -5.14002 
33.4896 95.7257 -29.9974 0.80652 -0.88338 6.99846 -0.00847463 2.05066 0.590436 5.42985 -3.9035 7.42397 -0.45605 9.79655 -4.87269 0.133283 -5.66862 0.0167831 1.02831 -3.11284 -0.950256 -4.45737 -1.85205 -2.59405 1.04174 11.2932 -0.867549 -8.56147 -7.45961 -7.84058 2.71222 -9.25791 3.13971 -0.0381467 4.10111 1.18231 -0.0381473 4.10112 1.18232 4.46194 -5.81406 -7.52292 -28.3185 4.46219 3.19041 -58.084 40.9461 11.9876 17.9467 2.82819 -26.0573 3.30135 2.49199 -2.03668 -0 -6.36111e-015 -0 -1.59028e-015 -6.36111e-015 1.59028e-015 9.97536 13.0384 28.6461 36.8704 -8.75428 31.1166 -61.0065 3.5914 90.3347 -21.9767 -5.31652 6.31163 6.36111e-015 0 3.18055e-015 3.18055e-015 3.18056e-015 3.18055e-015 -3.3796 5.47533 -5.21512 
